# xmcd
# 
# Track frame offsets:
#     183
#     34228
#     57210
#     89875
# 
# Disc length: 1468
# 
# Revision: 1
# Processed by: cddbd v1.5.2PL0 Copyright (c) Steve Scherf et al.
# Submitted via: fre:ac v1.0.17
# 
DISCID=3305ba04
DTITLE=Carleen Andersson - Nervous Breakdown
DYEAR=1994
DGENRE=Acid Jazz
TTITLE0=Nervous breakdown ( Whit's End Full Length Version )
TTITLE1=A song for you
TTITLE2=Nervous breakdown ( Underdog's Horny Easin' Mix Version )
TTITLE3=Nervous breakdown ( Underdog's Ruff Version )
EXTD=
EXTT0=
EXTT1=
EXTT2=
EXTT3=
PLAYORDER=
